<svg width="100" height="100" viewBox="0 0 100 100" fill="none" xmlns="http://www.w3.org/2000/svg">
<path fill-rule="evenodd" clip-rule="evenodd" d="M86.2083 51.7917L50 69.9168V91.6667L86.2083 73.5417V51.7917Z" fill="#4285F4"/>
<path fill-rule="evenodd" clip-rule="evenodd" d="M71.75 33.7083V51.7916L86.2083 44.5833V26.4583L71.75 33.7083ZM50 62.6666L64.5 55.4583V37.3333L50 44.5833V62.6666Z" fill="#4285F4"/>
<path d="M28.2493 19.2083L13.791 26.4583L28.2493 33.7083L42.7493 26.4583L28.2493 19.2083Z" fill="#AECBFA"/>
<path fill-rule="evenodd" clip-rule="evenodd" d="M50 8.33325L35.5 15.5833L50 22.8333L71.75 33.7083L86.2083 26.4583L50 8.33325Z" fill="#AECBFA"/>
<path d="M50 30.0833L35.5 37.3333L50 44.5833L64.5 37.3333L50 30.0833Z" fill="#AECBFA"/>
<path d="M35.4993 62.4999V84.2499L49.9994 91.6666V69.9166L35.4993 62.4999ZM46.3743 84.2499L39.1243 80.6249V69.9166L46.3743 73.5416V84.2499ZM13.791 26.4583V73.5416L28.2493 80.7916V33.7083L13.791 26.4583ZM24.666 73.5416L17.3743 69.9166V28.2499L24.666 31.8749V73.5416ZM35.4993 37.4999L49.9994 44.5833V62.4999L35.4993 55.4583V37.4999ZM46.3743 55.6249V43.1249L39.1243 39.3749V51.8749L46.3743 55.6249Z" fill="#669DF6"/>
</svg>
